# xmcd CD database file
#
# Track frame offsets:
#	150
#	19712
#	38046
#	48539
#	71643
#	88396
#	104445
#	115349
#	129984
#	143642
#	167918
#	182084
#
# Disc length: 2667 seconds
#
# Revision: 0
# Processed by: cddbd v1.5.2PL0 Copyright (c) Steve Scherf et al.
# Submitted via: CDex 1.70beta2
#
DISCID=a80a690c
DTITLE=T.J. Casey - Pure "D" Cowboy
DYEAR=2005
DGENRE=Country
TTITLE0=Ride Cowboy Ride
TTITLE1=The Cowboy Hall Of Fame
TTITLE2=I'm Gonna Ride
TTITLE3=The Cowboy Ain't Over (Till the Last Coyote Sings)
TTITLE4=It's In My Blood
TTITLE5=The Wind
TTITLE6=Wish I Was Just a Kid Again
TTITLE7=Blue Moon Trail
TTITLE8=In Montana
TTITLE9=Heart Over Money
TTITLE10=Cowboy, Don't Change Your Ways
TTITLE11=Old Can Man
EXTD=YEAR: 2005
EXTT0=
EXTT1=
EXTT2=
EXTT3=
EXTT4=
EXTT5=
EXTT6=
EXTT7=
EXTT8=
EXTT9=
EXTT10=
EXTT11=
PLAYORDER=
